<mxfile host="app.diagrams.net" agent="Mozilla/5.0 (X11; Linux x86_64) AppleWebKit/537.36 (KHTML, like Gecko) Chrome/132.0.0.0 Safari/537.36" version="26.0.11">
  <diagram name="Page-1" id="Ngw_0rMZXs8g8waUGGPU">
    <mxGraphModel dx="1969" dy="893" grid="1" gridSize="10" guides="1" tooltips="1" connect="1" arrows="1" fold="1" page="1" pageScale="1" pageWidth="850" pageHeight="1100" math="0" shadow="0">
      <root>
        <mxCell id="0" />
        <mxCell id="1" parent="0" />
        <mxCell id="0Ucy7_sAk1rPVKyENify-8" style="edgeStyle=orthogonalEdgeStyle;rounded=0;orthogonalLoop=1;jettySize=auto;html=1;exitX=0.5;exitY=1;exitDx=0;exitDy=0;entryX=0.5;entryY=0;entryDx=0;entryDy=0;" edge="1" parent="1" source="0Ucy7_sAk1rPVKyENify-1" target="0Ucy7_sAk1rPVKyENify-7">
          <mxGeometry relative="1" as="geometry" />
        </mxCell>
        <mxCell id="0Ucy7_sAk1rPVKyENify-11" value="1" style="edgeLabel;html=1;align=center;verticalAlign=middle;resizable=0;points=[];" vertex="1" connectable="0" parent="0Ucy7_sAk1rPVKyENify-8">
          <mxGeometry x="-0.1257" y="1" relative="1" as="geometry">
            <mxPoint as="offset" />
          </mxGeometry>
        </mxCell>
        <mxCell id="0Ucy7_sAk1rPVKyENify-1" value="User" style="rounded=0;whiteSpace=wrap;html=1;" vertex="1" parent="1">
          <mxGeometry x="180" y="260" width="120" height="60" as="geometry" />
        </mxCell>
        <mxCell id="0Ucy7_sAk1rPVKyENify-2" value="Product" style="rounded=0;whiteSpace=wrap;html=1;" vertex="1" parent="1">
          <mxGeometry x="691" y="500" width="120" height="60" as="geometry" />
        </mxCell>
        <mxCell id="0Ucy7_sAk1rPVKyENify-23" value="" style="edgeStyle=orthogonalEdgeStyle;rounded=0;orthogonalLoop=1;jettySize=auto;html=1;" edge="1" parent="1" source="0Ucy7_sAk1rPVKyENify-3" target="0Ucy7_sAk1rPVKyENify-18">
          <mxGeometry relative="1" as="geometry" />
        </mxCell>
        <mxCell id="0Ucy7_sAk1rPVKyENify-25" value="1" style="edgeLabel;html=1;align=center;verticalAlign=middle;resizable=0;points=[];" vertex="1" connectable="0" parent="0Ucy7_sAk1rPVKyENify-23">
          <mxGeometry x="-0.2971" y="3" relative="1" as="geometry">
            <mxPoint as="offset" />
          </mxGeometry>
        </mxCell>
        <mxCell id="0Ucy7_sAk1rPVKyENify-3" value="Category" style="rounded=0;whiteSpace=wrap;html=1;" vertex="1" parent="1">
          <mxGeometry x="691" y="250" width="120" height="60" as="geometry" />
        </mxCell>
        <mxCell id="0Ucy7_sAk1rPVKyENify-15" value="" style="edgeStyle=orthogonalEdgeStyle;rounded=0;orthogonalLoop=1;jettySize=auto;html=1;" edge="1" parent="1" source="0Ucy7_sAk1rPVKyENify-4" target="0Ucy7_sAk1rPVKyENify-13">
          <mxGeometry relative="1" as="geometry" />
        </mxCell>
        <mxCell id="0Ucy7_sAk1rPVKyENify-16" value="M" style="edgeLabel;html=1;align=center;verticalAlign=middle;resizable=0;points=[];" vertex="1" connectable="0" parent="0Ucy7_sAk1rPVKyENify-15">
          <mxGeometry x="-0.2303" y="1" relative="1" as="geometry">
            <mxPoint as="offset" />
          </mxGeometry>
        </mxCell>
        <mxCell id="0Ucy7_sAk1rPVKyENify-4" value="Order" style="rounded=0;whiteSpace=wrap;html=1;" vertex="1" parent="1">
          <mxGeometry x="180" y="500" width="120" height="60" as="geometry" />
        </mxCell>
        <mxCell id="0Ucy7_sAk1rPVKyENify-29" style="edgeStyle=orthogonalEdgeStyle;rounded=0;orthogonalLoop=1;jettySize=auto;html=1;exitX=0;exitY=0.5;exitDx=0;exitDy=0;" edge="1" parent="1" source="0Ucy7_sAk1rPVKyENify-5" target="0Ucy7_sAk1rPVKyENify-27">
          <mxGeometry relative="1" as="geometry" />
        </mxCell>
        <mxCell id="0Ucy7_sAk1rPVKyENify-33" value="1" style="edgeLabel;html=1;align=center;verticalAlign=middle;resizable=0;points=[];" vertex="1" connectable="0" parent="0Ucy7_sAk1rPVKyENify-29">
          <mxGeometry x="0.1229" y="1" relative="1" as="geometry">
            <mxPoint as="offset" />
          </mxGeometry>
        </mxCell>
        <mxCell id="0Ucy7_sAk1rPVKyENify-5" value="Room" style="rounded=0;whiteSpace=wrap;html=1;" vertex="1" parent="1">
          <mxGeometry x="532" y="250" width="120" height="60" as="geometry" />
        </mxCell>
        <mxCell id="0Ucy7_sAk1rPVKyENify-9" value="" style="edgeStyle=orthogonalEdgeStyle;rounded=0;orthogonalLoop=1;jettySize=auto;html=1;" edge="1" parent="1" source="0Ucy7_sAk1rPVKyENify-7" target="0Ucy7_sAk1rPVKyENify-4">
          <mxGeometry relative="1" as="geometry" />
        </mxCell>
        <mxCell id="0Ucy7_sAk1rPVKyENify-12" value="M" style="edgeLabel;html=1;align=center;verticalAlign=middle;resizable=0;points=[];" vertex="1" connectable="0" parent="0Ucy7_sAk1rPVKyENify-9">
          <mxGeometry x="-0.0686" relative="1" as="geometry">
            <mxPoint as="offset" />
          </mxGeometry>
        </mxCell>
        <mxCell id="0Ucy7_sAk1rPVKyENify-7" value="Make" style="rhombus;whiteSpace=wrap;html=1;" vertex="1" parent="1">
          <mxGeometry x="200" y="370" width="80" height="80" as="geometry" />
        </mxCell>
        <mxCell id="0Ucy7_sAk1rPVKyENify-14" value="" style="edgeStyle=orthogonalEdgeStyle;rounded=0;orthogonalLoop=1;jettySize=auto;html=1;" edge="1" parent="1" source="0Ucy7_sAk1rPVKyENify-13" target="0Ucy7_sAk1rPVKyENify-2">
          <mxGeometry relative="1" as="geometry" />
        </mxCell>
        <mxCell id="0Ucy7_sAk1rPVKyENify-17" value="N" style="edgeLabel;html=1;align=center;verticalAlign=middle;resizable=0;points=[];" vertex="1" connectable="0" parent="0Ucy7_sAk1rPVKyENify-14">
          <mxGeometry x="-0.2134" y="4" relative="1" as="geometry">
            <mxPoint x="1" as="offset" />
          </mxGeometry>
        </mxCell>
        <mxCell id="0Ucy7_sAk1rPVKyENify-32" style="edgeStyle=orthogonalEdgeStyle;rounded=0;orthogonalLoop=1;jettySize=auto;html=1;exitX=1;exitY=1;exitDx=0;exitDy=0;entryX=0.5;entryY=0;entryDx=0;entryDy=0;" edge="1" parent="1" source="0Ucy7_sAk1rPVKyENify-13" target="0Ucy7_sAk1rPVKyENify-31">
          <mxGeometry relative="1" as="geometry">
            <Array as="points">
              <mxPoint x="510" y="550" />
            </Array>
          </mxGeometry>
        </mxCell>
        <mxCell id="0Ucy7_sAk1rPVKyENify-13" value="Contain" style="rhombus;whiteSpace=wrap;html=1;" vertex="1" parent="1">
          <mxGeometry x="470" y="490" width="80" height="80" as="geometry" />
        </mxCell>
        <mxCell id="0Ucy7_sAk1rPVKyENify-24" value="" style="edgeStyle=orthogonalEdgeStyle;rounded=0;orthogonalLoop=1;jettySize=auto;html=1;" edge="1" parent="1" source="0Ucy7_sAk1rPVKyENify-18" target="0Ucy7_sAk1rPVKyENify-2">
          <mxGeometry relative="1" as="geometry" />
        </mxCell>
        <mxCell id="0Ucy7_sAk1rPVKyENify-26" value="M" style="edgeLabel;html=1;align=center;verticalAlign=middle;resizable=0;points=[];" vertex="1" connectable="0" parent="0Ucy7_sAk1rPVKyENify-24">
          <mxGeometry x="-0.1257" relative="1" as="geometry">
            <mxPoint as="offset" />
          </mxGeometry>
        </mxCell>
        <mxCell id="0Ucy7_sAk1rPVKyENify-18" value="Apply to" style="rhombus;whiteSpace=wrap;html=1;" vertex="1" parent="1">
          <mxGeometry x="711" y="370" width="80" height="80" as="geometry" />
        </mxCell>
        <mxCell id="0Ucy7_sAk1rPVKyENify-30" style="edgeStyle=orthogonalEdgeStyle;rounded=0;orthogonalLoop=1;jettySize=auto;html=1;exitX=0;exitY=1;exitDx=0;exitDy=0;entryX=0.927;entryY=-0.04;entryDx=0;entryDy=0;entryPerimeter=0;" edge="1" parent="1" source="0Ucy7_sAk1rPVKyENify-27" target="0Ucy7_sAk1rPVKyENify-4">
          <mxGeometry relative="1" as="geometry">
            <mxPoint x="290" y="490" as="targetPoint" />
            <Array as="points">
              <mxPoint x="290" y="430" />
              <mxPoint x="290" y="498" />
            </Array>
          </mxGeometry>
        </mxCell>
        <mxCell id="0Ucy7_sAk1rPVKyENify-34" value="M" style="edgeLabel;html=1;align=center;verticalAlign=middle;resizable=0;points=[];" vertex="1" connectable="0" parent="0Ucy7_sAk1rPVKyENify-30">
          <mxGeometry x="0.2605" y="-4" relative="1" as="geometry">
            <mxPoint x="55" y="4" as="offset" />
          </mxGeometry>
        </mxCell>
        <mxCell id="0Ucy7_sAk1rPVKyENify-27" value="Make" style="rhombus;whiteSpace=wrap;html=1;" vertex="1" parent="1">
          <mxGeometry x="470" y="360" width="80" height="80" as="geometry" />
        </mxCell>
        <mxCell id="0Ucy7_sAk1rPVKyENify-31" value="quantity" style="ellipse;whiteSpace=wrap;html=1;" vertex="1" parent="1">
          <mxGeometry x="465" y="610" width="90" height="40" as="geometry" />
        </mxCell>
        <mxCell id="0Ucy7_sAk1rPVKyENify-124" style="edgeStyle=orthogonalEdgeStyle;rounded=0;orthogonalLoop=1;jettySize=auto;html=1;exitX=0.5;exitY=1;exitDx=0;exitDy=0;entryX=0.5;entryY=0;entryDx=0;entryDy=0;" edge="1" parent="1" source="0Ucy7_sAk1rPVKyENify-37" target="0Ucy7_sAk1rPVKyENify-1">
          <mxGeometry relative="1" as="geometry" />
        </mxCell>
        <mxCell id="0Ucy7_sAk1rPVKyENify-37" value="image_path" style="ellipse;whiteSpace=wrap;html=1;" vertex="1" parent="1">
          <mxGeometry x="195" y="70" width="90" height="40" as="geometry" />
        </mxCell>
        <mxCell id="0Ucy7_sAk1rPVKyENify-50" style="edgeStyle=orthogonalEdgeStyle;rounded=0;orthogonalLoop=1;jettySize=auto;html=1;entryX=0.5;entryY=0;entryDx=0;entryDy=0;" edge="1" parent="1" source="0Ucy7_sAk1rPVKyENify-38" target="0Ucy7_sAk1rPVKyENify-1">
          <mxGeometry relative="1" as="geometry" />
        </mxCell>
        <mxCell id="0Ucy7_sAk1rPVKyENify-38" value="room_id(FK)" style="ellipse;whiteSpace=wrap;html=1;" vertex="1" parent="1">
          <mxGeometry x="370" y="220" width="90" height="40" as="geometry" />
        </mxCell>
        <mxCell id="0Ucy7_sAk1rPVKyENify-128" style="edgeStyle=orthogonalEdgeStyle;rounded=0;orthogonalLoop=1;jettySize=auto;html=1;exitX=0;exitY=0.5;exitDx=0;exitDy=0;" edge="1" parent="1" source="0Ucy7_sAk1rPVKyENify-39">
          <mxGeometry relative="1" as="geometry">
            <mxPoint x="240" y="260" as="targetPoint" />
          </mxGeometry>
        </mxCell>
        <mxCell id="0Ucy7_sAk1rPVKyENify-39" value="role" style="ellipse;whiteSpace=wrap;html=1;" vertex="1" parent="1">
          <mxGeometry x="300" y="180" width="90" height="40" as="geometry" />
        </mxCell>
        <mxCell id="0Ucy7_sAk1rPVKyENify-48" style="edgeStyle=orthogonalEdgeStyle;rounded=0;orthogonalLoop=1;jettySize=auto;html=1;entryX=0.5;entryY=0;entryDx=0;entryDy=0;exitX=0;exitY=0.5;exitDx=0;exitDy=0;" edge="1" parent="1" source="0Ucy7_sAk1rPVKyENify-40" target="0Ucy7_sAk1rPVKyENify-1">
          <mxGeometry relative="1" as="geometry">
            <Array as="points">
              <mxPoint x="240" y="150" />
            </Array>
          </mxGeometry>
        </mxCell>
        <mxCell id="0Ucy7_sAk1rPVKyENify-40" value="password" style="ellipse;whiteSpace=wrap;html=1;" vertex="1" parent="1">
          <mxGeometry x="270" y="130" width="90" height="40" as="geometry" />
        </mxCell>
        <mxCell id="0Ucy7_sAk1rPVKyENify-47" style="edgeStyle=orthogonalEdgeStyle;rounded=0;orthogonalLoop=1;jettySize=auto;html=1;exitX=1;exitY=0.5;exitDx=0;exitDy=0;entryX=0.5;entryY=0;entryDx=0;entryDy=0;" edge="1" parent="1" source="0Ucy7_sAk1rPVKyENify-41" target="0Ucy7_sAk1rPVKyENify-1">
          <mxGeometry relative="1" as="geometry">
            <Array as="points">
              <mxPoint x="240" y="180" />
              <mxPoint x="240" y="180" />
            </Array>
          </mxGeometry>
        </mxCell>
        <mxCell id="0Ucy7_sAk1rPVKyENify-41" value="email" style="ellipse;whiteSpace=wrap;html=1;" vertex="1" parent="1">
          <mxGeometry x="120" y="130" width="90" height="40" as="geometry" />
        </mxCell>
        <mxCell id="0Ucy7_sAk1rPVKyENify-42" value="name" style="ellipse;whiteSpace=wrap;html=1;" vertex="1" parent="1">
          <mxGeometry x="90" y="180" width="90" height="40" as="geometry" />
        </mxCell>
        <mxCell id="0Ucy7_sAk1rPVKyENify-43" value="&lt;u&gt;ID&lt;/u&gt;" style="ellipse;whiteSpace=wrap;html=1;" vertex="1" parent="1">
          <mxGeometry x="10" y="220" width="90" height="40" as="geometry" />
        </mxCell>
        <mxCell id="0Ucy7_sAk1rPVKyENify-45" style="edgeStyle=orthogonalEdgeStyle;rounded=0;orthogonalLoop=1;jettySize=auto;html=1;exitX=1;exitY=0.5;exitDx=0;exitDy=0;entryX=0.5;entryY=0;entryDx=0;entryDy=0;" edge="1" parent="1" source="0Ucy7_sAk1rPVKyENify-42" target="0Ucy7_sAk1rPVKyENify-1">
          <mxGeometry relative="1" as="geometry">
            <Array as="points">
              <mxPoint x="240" y="200" />
            </Array>
          </mxGeometry>
        </mxCell>
        <mxCell id="0Ucy7_sAk1rPVKyENify-46" style="edgeStyle=orthogonalEdgeStyle;rounded=0;orthogonalLoop=1;jettySize=auto;html=1;exitX=1;exitY=0.5;exitDx=0;exitDy=0;entryX=0.5;entryY=0;entryDx=0;entryDy=0;" edge="1" parent="1" source="0Ucy7_sAk1rPVKyENify-43" target="0Ucy7_sAk1rPVKyENify-1">
          <mxGeometry relative="1" as="geometry">
            <mxPoint x="187" y="260" as="targetPoint" />
            <Array as="points">
              <mxPoint x="100" y="240" />
              <mxPoint x="240" y="240" />
            </Array>
          </mxGeometry>
        </mxCell>
        <mxCell id="0Ucy7_sAk1rPVKyENify-52" value="name" style="ellipse;whiteSpace=wrap;html=1;" vertex="1" parent="1">
          <mxGeometry x="547" y="150" width="90" height="40" as="geometry" />
        </mxCell>
        <mxCell id="0Ucy7_sAk1rPVKyENify-95" style="edgeStyle=orthogonalEdgeStyle;rounded=0;orthogonalLoop=1;jettySize=auto;html=1;exitX=0.5;exitY=1;exitDx=0;exitDy=0;entryX=0.5;entryY=0;entryDx=0;entryDy=0;" edge="1" parent="1" source="0Ucy7_sAk1rPVKyENify-53" target="0Ucy7_sAk1rPVKyENify-5">
          <mxGeometry relative="1" as="geometry">
            <Array as="points">
              <mxPoint x="496" y="200" />
              <mxPoint x="592" y="200" />
            </Array>
          </mxGeometry>
        </mxCell>
        <mxCell id="0Ucy7_sAk1rPVKyENify-53" value="&lt;u&gt;ID&lt;/u&gt;" style="ellipse;whiteSpace=wrap;html=1;" vertex="1" parent="1">
          <mxGeometry x="451" y="150" width="90" height="40" as="geometry" />
        </mxCell>
        <mxCell id="0Ucy7_sAk1rPVKyENify-96" style="edgeStyle=orthogonalEdgeStyle;rounded=0;orthogonalLoop=1;jettySize=auto;html=1;exitX=0.5;exitY=1;exitDx=0;exitDy=0;entryX=0.5;entryY=0;entryDx=0;entryDy=0;" edge="1" parent="1" source="0Ucy7_sAk1rPVKyENify-54" target="0Ucy7_sAk1rPVKyENify-5">
          <mxGeometry relative="1" as="geometry">
            <Array as="points">
              <mxPoint x="692" y="200" />
              <mxPoint x="592" y="200" />
            </Array>
          </mxGeometry>
        </mxCell>
        <mxCell id="0Ucy7_sAk1rPVKyENify-54" value="floor&quot;Ext&quot;" style="ellipse;whiteSpace=wrap;html=1;" vertex="1" parent="1">
          <mxGeometry x="647" y="150" width="90" height="40" as="geometry" />
        </mxCell>
        <mxCell id="0Ucy7_sAk1rPVKyENify-59" style="edgeStyle=orthogonalEdgeStyle;rounded=0;orthogonalLoop=1;jettySize=auto;html=1;exitX=0.5;exitY=1;exitDx=0;exitDy=0;entryX=0.5;entryY=0;entryDx=0;entryDy=0;" edge="1" parent="1" source="0Ucy7_sAk1rPVKyENify-52" target="0Ucy7_sAk1rPVKyENify-5">
          <mxGeometry relative="1" as="geometry" />
        </mxCell>
        <mxCell id="0Ucy7_sAk1rPVKyENify-65" value="" style="edgeStyle=orthogonalEdgeStyle;rounded=0;orthogonalLoop=1;jettySize=auto;html=1;" edge="1" parent="1" source="0Ucy7_sAk1rPVKyENify-62" target="0Ucy7_sAk1rPVKyENify-3">
          <mxGeometry relative="1" as="geometry" />
        </mxCell>
        <mxCell id="0Ucy7_sAk1rPVKyENify-62" value="&lt;u&gt;ID&lt;/u&gt;" style="ellipse;whiteSpace=wrap;html=1;" vertex="1" parent="1">
          <mxGeometry x="880" y="230" width="90" height="40" as="geometry" />
        </mxCell>
        <mxCell id="0Ucy7_sAk1rPVKyENify-67" value="" style="edgeStyle=orthogonalEdgeStyle;rounded=0;orthogonalLoop=1;jettySize=auto;html=1;" edge="1" parent="1" source="0Ucy7_sAk1rPVKyENify-63" target="0Ucy7_sAk1rPVKyENify-3">
          <mxGeometry relative="1" as="geometry" />
        </mxCell>
        <mxCell id="0Ucy7_sAk1rPVKyENify-63" value="name" style="ellipse;whiteSpace=wrap;html=1;" vertex="1" parent="1">
          <mxGeometry x="880" y="290" width="90" height="40" as="geometry" />
        </mxCell>
        <mxCell id="0Ucy7_sAk1rPVKyENify-90" style="edgeStyle=orthogonalEdgeStyle;rounded=0;orthogonalLoop=1;jettySize=auto;html=1;entryX=0.5;entryY=1;entryDx=0;entryDy=0;" edge="1" parent="1" source="0Ucy7_sAk1rPVKyENify-74" target="0Ucy7_sAk1rPVKyENify-2">
          <mxGeometry relative="1" as="geometry">
            <Array as="points">
              <mxPoint x="940" y="610" />
              <mxPoint x="751" y="610" />
            </Array>
          </mxGeometry>
        </mxCell>
        <mxCell id="0Ucy7_sAk1rPVKyENify-74" value="image_path" style="ellipse;whiteSpace=wrap;html=1;" vertex="1" parent="1">
          <mxGeometry x="890" y="660" width="106" height="40" as="geometry" />
        </mxCell>
        <mxCell id="0Ucy7_sAk1rPVKyENify-89" value="" style="edgeStyle=orthogonalEdgeStyle;rounded=0;orthogonalLoop=1;jettySize=auto;html=1;" edge="1" parent="1" source="0Ucy7_sAk1rPVKyENify-75" target="0Ucy7_sAk1rPVKyENify-2">
          <mxGeometry relative="1" as="geometry" />
        </mxCell>
        <mxCell id="0Ucy7_sAk1rPVKyENify-75" value="price" style="ellipse;whiteSpace=wrap;html=1;" vertex="1" parent="1">
          <mxGeometry x="706" y="710" width="90" height="40" as="geometry" />
        </mxCell>
        <mxCell id="0Ucy7_sAk1rPVKyENify-87" style="edgeStyle=orthogonalEdgeStyle;rounded=0;orthogonalLoop=1;jettySize=auto;html=1;entryX=0.5;entryY=1;entryDx=0;entryDy=0;" edge="1" parent="1" source="0Ucy7_sAk1rPVKyENify-76" target="0Ucy7_sAk1rPVKyENify-2">
          <mxGeometry relative="1" as="geometry" />
        </mxCell>
        <mxCell id="0Ucy7_sAk1rPVKyENify-76" value="name" style="ellipse;whiteSpace=wrap;html=1;" vertex="1" parent="1">
          <mxGeometry x="654" y="660" width="90" height="40" as="geometry" />
        </mxCell>
        <mxCell id="0Ucy7_sAk1rPVKyENify-85" style="edgeStyle=orthogonalEdgeStyle;rounded=0;orthogonalLoop=1;jettySize=auto;html=1;" edge="1" parent="1" source="0Ucy7_sAk1rPVKyENify-77">
          <mxGeometry relative="1" as="geometry">
            <mxPoint x="751" y="560" as="targetPoint" />
            <Array as="points">
              <mxPoint x="599" y="610" />
              <mxPoint x="751" y="610" />
              <mxPoint x="751" y="560" />
            </Array>
          </mxGeometry>
        </mxCell>
        <mxCell id="0Ucy7_sAk1rPVKyENify-77" value="&lt;u&gt;ID&lt;/u&gt;" style="ellipse;whiteSpace=wrap;html=1;" vertex="1" parent="1">
          <mxGeometry x="554" y="660" width="90" height="40" as="geometry" />
        </mxCell>
        <mxCell id="0Ucy7_sAk1rPVKyENify-92" style="edgeStyle=orthogonalEdgeStyle;rounded=0;orthogonalLoop=1;jettySize=auto;html=1;entryX=0.5;entryY=1;entryDx=0;entryDy=0;" edge="1" parent="1" source="0Ucy7_sAk1rPVKyENify-91" target="0Ucy7_sAk1rPVKyENify-2">
          <mxGeometry relative="1" as="geometry">
            <Array as="points">
              <mxPoint x="820" y="610" />
              <mxPoint x="751" y="610" />
            </Array>
          </mxGeometry>
        </mxCell>
        <mxCell id="0Ucy7_sAk1rPVKyENify-91" value="category_ID(FK)" style="ellipse;whiteSpace=wrap;html=1;" vertex="1" parent="1">
          <mxGeometry x="760" y="660" width="120" height="40" as="geometry" />
        </mxCell>
        <mxCell id="0Ucy7_sAk1rPVKyENify-113" style="edgeStyle=orthogonalEdgeStyle;rounded=0;orthogonalLoop=1;jettySize=auto;html=1;entryX=0.5;entryY=1;entryDx=0;entryDy=0;" edge="1" parent="1" source="0Ucy7_sAk1rPVKyENify-104" target="0Ucy7_sAk1rPVKyENify-4">
          <mxGeometry relative="1" as="geometry">
            <Array as="points">
              <mxPoint x="240" y="680" />
              <mxPoint x="240" y="680" />
            </Array>
          </mxGeometry>
        </mxCell>
        <mxCell id="0Ucy7_sAk1rPVKyENify-104" value="total_price" style="ellipse;whiteSpace=wrap;html=1;" vertex="1" parent="1">
          <mxGeometry x="120" y="710" width="90" height="40" as="geometry" />
        </mxCell>
        <mxCell id="0Ucy7_sAk1rPVKyENify-111" style="edgeStyle=orthogonalEdgeStyle;rounded=0;orthogonalLoop=1;jettySize=auto;html=1;entryX=0.5;entryY=1;entryDx=0;entryDy=0;" edge="1" parent="1" source="0Ucy7_sAk1rPVKyENify-105" target="0Ucy7_sAk1rPVKyENify-4">
          <mxGeometry relative="1" as="geometry" />
        </mxCell>
        <mxCell id="0Ucy7_sAk1rPVKyENify-105" value="&lt;u&gt;ID&lt;/u&gt;" style="ellipse;whiteSpace=wrap;html=1;" vertex="1" parent="1">
          <mxGeometry x="20" y="610" width="90" height="40" as="geometry" />
        </mxCell>
        <mxCell id="0Ucy7_sAk1rPVKyENify-114" style="edgeStyle=orthogonalEdgeStyle;rounded=0;orthogonalLoop=1;jettySize=auto;html=1;entryX=0.5;entryY=1;entryDx=0;entryDy=0;" edge="1" parent="1" source="0Ucy7_sAk1rPVKyENify-106" target="0Ucy7_sAk1rPVKyENify-4">
          <mxGeometry relative="1" as="geometry">
            <Array as="points">
              <mxPoint x="240" y="730" />
            </Array>
          </mxGeometry>
        </mxCell>
        <mxCell id="0Ucy7_sAk1rPVKyENify-106" value="status" style="ellipse;whiteSpace=wrap;html=1;" vertex="1" parent="1">
          <mxGeometry x="270" y="710" width="90" height="40" as="geometry" />
        </mxCell>
        <mxCell id="0Ucy7_sAk1rPVKyENify-112" style="edgeStyle=orthogonalEdgeStyle;rounded=0;orthogonalLoop=1;jettySize=auto;html=1;entryX=0.5;entryY=1;entryDx=0;entryDy=0;" edge="1" parent="1" source="0Ucy7_sAk1rPVKyENify-107" target="0Ucy7_sAk1rPVKyENify-4">
          <mxGeometry relative="1" as="geometry" />
        </mxCell>
        <mxCell id="0Ucy7_sAk1rPVKyENify-107" value="user_ID(FK)" style="ellipse;whiteSpace=wrap;html=1;" vertex="1" parent="1">
          <mxGeometry x="70" y="660" width="90" height="40" as="geometry" />
        </mxCell>
        <mxCell id="0Ucy7_sAk1rPVKyENify-115" style="edgeStyle=orthogonalEdgeStyle;rounded=0;orthogonalLoop=1;jettySize=auto;html=1;entryX=0.5;entryY=1;entryDx=0;entryDy=0;" edge="1" parent="1" source="0Ucy7_sAk1rPVKyENify-108" target="0Ucy7_sAk1rPVKyENify-4">
          <mxGeometry relative="1" as="geometry" />
        </mxCell>
        <mxCell id="0Ucy7_sAk1rPVKyENify-108" value="notes" style="ellipse;whiteSpace=wrap;html=1;" vertex="1" parent="1">
          <mxGeometry x="320" y="660" width="90" height="40" as="geometry" />
        </mxCell>
        <mxCell id="0Ucy7_sAk1rPVKyENify-120" style="edgeStyle=orthogonalEdgeStyle;rounded=0;orthogonalLoop=1;jettySize=auto;html=1;" edge="1" parent="1" source="0Ucy7_sAk1rPVKyENify-109">
          <mxGeometry relative="1" as="geometry">
            <mxPoint x="240" y="560" as="targetPoint" />
          </mxGeometry>
        </mxCell>
        <mxCell id="0Ucy7_sAk1rPVKyENify-109" value="room_ID(FK)" style="ellipse;whiteSpace=wrap;html=1;" vertex="1" parent="1">
          <mxGeometry x="370" y="610" width="90" height="40" as="geometry" />
        </mxCell>
        <mxCell id="0Ucy7_sAk1rPVKyENify-121" style="edgeStyle=orthogonalEdgeStyle;rounded=0;orthogonalLoop=1;jettySize=auto;html=1;entryX=0.5;entryY=1;entryDx=0;entryDy=0;" edge="1" parent="1" source="0Ucy7_sAk1rPVKyENify-110" target="0Ucy7_sAk1rPVKyENify-4">
          <mxGeometry relative="1" as="geometry" />
        </mxCell>
        <mxCell id="0Ucy7_sAk1rPVKyENify-110" value="created_at" style="ellipse;whiteSpace=wrap;html=1;" vertex="1" parent="1">
          <mxGeometry x="195" y="770" width="90" height="40" as="geometry" />
        </mxCell>
      </root>
    </mxGraphModel>
  </diagram>
</mxfile>
